<?xml version="1.0" encoding="utf-8"?>
<!-- Generator: Adobe Illustrator 19.0.0, SVG Export Plug-In . SVG Version: 6.00 Build 0)  -->
<svg version="1.1" id="Layer_1" xmlns="http://www.w3.org/2000/svg" xmlns:xlink="http://www.w3.org/1999/xlink" x="0px" y="0px"
	 viewBox="0 0 269.5 122.3" style="enable-background:new 0 0 269.5 122.3;" xml:space="preserve">
<style type="text/css">
	.st0{fill:url(#polygon16_1_);}
	.st1{fill:#0071B9;}
	.st2{fill:url(#polygon25_1_);}
	.st3{fill:#1D2C5E;}
	.st4{fill:url(#polygon36_1_);}
	.st5{fill:url(#polygon43_1_);}
	.st6{fill:#312370;}
	.st7{fill:#21386E;}
	.st8{fill:url(#polygon56_1_);}
	.st9{fill:url(#path69_1_);}
	.st10{fill:url(#polygon78_1_);}
	.st11{fill:#FFCB05;}
	.st12{fill:#7D7F68;}
	.st13{fill:#C7A008;}
	.st14{fill:#3C5AA6;}
	.st15{fill:#3567B0;}
	.st16{fill:#1E2D5F;}
	.st17{fill:#3466AF;}
	.st18{fill:url(#path183_1_);}
	.st19{fill:url(#path196_1_);}
	.st20{fill:#FFCB05;stroke:url(#XMLID_51_);stroke-width:5;stroke-miterlimit:10;}
</style>
<g id="XMLID_1_">
	
		<linearGradient id="polygon16_1_" gradientUnits="userSpaceOnUse" x1="426.7507" y1="-302.7077" x2="416.7334" y2="-284.039" gradientTransform="matrix(1 0 0 -1 -413.451 -225.6911)">
		<stop  offset="0" style="stop-color:#0070B6"/>
		<stop  offset="1" style="stop-color:#1D2C5E"/>
	</linearGradient>
	<polygon id="polygon16" class="st0" points="0,60 12,80.4 16.8,75.8 3.7,56.3 	"/>
	<polygon id="polygon18" class="st1" points="178.6,44.1 178.1,46.8 183.8,44.9 183.1,41.6 	"/>
	
		<linearGradient id="polygon25_1_" gradientUnits="userSpaceOnUse" x1="548.926" y1="-264.57" x2="561.6412" y2="-250.946" gradientTransform="matrix(1 0 0 -1 -413.451 -225.6911)">
		<stop  offset="0" style="stop-color:#0070B6"/>
		<stop  offset="1" style="stop-color:#1D2C5E"/>
	</linearGradient>
	<polygon id="polygon25" class="st2" points="145,25.8 126.5,47 131.9,45.5 149.5,23.5 	"/>
	<polygon id="polygon27" class="st3" points="244.1,54.8 248.6,52.4 247.3,63.8 	"/>
	<polygon id="polygon29" class="st3" points="215.8,62.1 219.9,63 225,60.5 220.5,58.8 	"/>
	
		<linearGradient id="polygon36_1_" gradientUnits="userSpaceOnUse" x1="493.4529" y1="-287.2837" x2="491.9366" y2="-274.5453" gradientTransform="matrix(1 0 0 -1 -413.451 -225.6911)">
		<stop  offset="0" style="stop-color:#0070B6"/>
		<stop  offset="1" style="stop-color:#1D2C5E"/>
	</linearGradient>
	<polygon id="polygon36" class="st4" points="76.6,50.1 77.2,63.2 82.9,61 81.2,47.6 	"/>
	
		<linearGradient id="polygon43_1_" gradientUnits="userSpaceOnUse" x1="632.3474" y1="-284.8315" x2="631.7419" y2="-273.3336" gradientTransform="matrix(1 0 0 -1 -413.451 -225.6911)">
		<stop  offset="0" style="stop-color:#125D9E"/>
		<stop  offset="1" style="stop-color:#1D2C5E"/>
	</linearGradient>
	<polygon id="polygon43" class="st5" points="220.2,46.1 215.7,48.6 215.8,62.1 220.4,59.8 221.8,53.2 	"/>
	<polygon id="polygon45" class="st6" points="219.6,63 214.6,107.4 222.6,105.8 224.1,60.6 	"/>
	<polygon id="polygon47" class="st7" points="229.3,109.5 229.5,115.5 244.8,120.4 249.4,118 234.3,106.3 219.1,105 214.6,107.4 	
		"/>
	<polygon id="polygon49" class="st7" points="172.5,98.9 176.2,96.9 178.7,101.3 182.2,99.4 182.9,105.2 205.2,109.2 209.6,106.7 
		178.9,88 157.1,91.7 152.9,95.8 	"/>
	
		<linearGradient id="polygon56_1_" gradientUnits="userSpaceOnUse" x1="589.9117" y1="-268.2586" x2="576.5682" y2="-289.4866" gradientTransform="matrix(1 0 0 -1 -413.451 -225.6911)">
		<stop  offset="0" style="stop-color:#125D9E"/>
		<stop  offset="1" style="stop-color:#1D2C5E"/>
	</linearGradient>
	<polygon id="polygon56" class="st8" points="165.4,44.3 160.9,46.8 152.9,95.8 157.4,93.4 165.1,65.9 	"/>
	<polygon id="polygon58" class="st3" points="129.8,50.9 126.2,52.8 126.5,54 135,48.6 131.3,44.6 126.5,47 	"/>
	<polygon id="polygon60" class="st7" points="139.5,108.8 103.2,90.8 107.7,87.3 144,106.3 	"/>
	<polygon id="polygon62" class="st3" points="106.6,41.8 101.1,52.2 106.9,50.5 111.1,39.3 	"/>
	
		<linearGradient id="path69_1_" gradientUnits="userSpaceOnUse" x1="471.8214" y1="-302.3071" x2="480.9194" y2="-320.2" gradientTransform="matrix(1 0 0 -1 -413.451 -225.6911)">
		<stop  offset="0" style="stop-color:#105FA1"/>
		<stop  offset="1" style="stop-color:#1D2C5E"/>
	</linearGradient>
	<path id="path69" class="st9" d="M56.6,84.9L52,88.1c0,0,1,5.2,2.3,8.8c1.3,3.6,4.3,6.5,4.3,6.5c2,1.9,4.3,3.3,7,4.1
		c5.1,1.5,10.9,0.5,15.9-2.7c1.3-0.8,3.1-2.1,4.2-3.2C80.8,104.6,56.6,84.9,56.6,84.9z"/>
	<polygon id="polygon71" class="st3" points="81.5,62.2 85.7,108.9 103.1,106.4 107.7,103.9 86.2,59.4 81.8,60.8 77.2,63.2 	"/>
	
		<linearGradient id="polygon78_1_" gradientUnits="userSpaceOnUse" x1="437.4921" y1="-296.1997" x2="448.0216" y2="-320.6091" gradientTransform="matrix(1 0 0 -1 -413.451 -225.6911)">
		<stop  offset="0" style="stop-color:#105FA1"/>
		<stop  offset="1" style="stop-color:#1D2C5E"/>
	</linearGradient>
	<polygon id="polygon78" class="st10" points="16.5,78.4 35.9,122.3 54.3,116.4 58.8,113.4 20.6,73.4 15.8,76.3 12,80.4 	"/>
	<path id="path80" class="st3" d="M208.4,99.1l0.3,2.2c1.6-0.2,3.2-0.4,4.7-0.9c1.7-0.6,5.3-2.2,6.6-3.4
		C219.4,97.2,211,99.4,208.4,99.1"/>
	<path id="path82" class="st3" d="M143.3,87.9l0.7,3.5c3.7-0.6,6.9-1.9,10.1-3.8c2-1.2,4.1-2.9,4.8-3.4
		C158.4,84.5,143.3,87.9,143.3,87.9z"/>
	<g id="g84" transform="translate(-5.451,-1.686)">
		<path id="path86" class="st11" d="M46.4,119.8l-1.4-3.2l-18.4-41l-0.4-0.8l-0.8,0.4l-0.6,0.3l-3.3,1.6c-0.5-0.8-1.3-2.2-1.8-3.1
			l-7.4-12.5l-1.9-3.3l3.2-2c3-1.9,6.4-3.7,10.2-5.3c7.4-3.1,14.9-4.8,21.8-4.8c2.3,0,4.5,0.2,6.5,0.5c3.4,0.4,6.6,1.5,9.2,3.3
			c3.9,2.2,7,5.6,8.7,9.6c1.4,3.3,1.7,7.2,0.8,11.2L70.3,73l2-1.4c1.3-1,2.7-1.8,4.2-2.4c2.6-1.1,5.3-1.7,8-1.7c2.6,0,5,0.5,7.2,1.5
			l1.4,0.6l-0.1-1.6l-0.6-6.7l-0.1-1.1l-1,0.3l-3.1,0.8l-0.5-11.4l22.8-7.3l-0.2,8.9l1.7,0.4l5-9.5l14.9,13.2l0.6,0.6l0.6-0.6
			c2-1.9,4.5-3.5,7.2-4.6l1.1-0.5l-0.8-1l-2.7-3.3l17.1-19.7l9,13.4l-13.7,7.4l-3,1.6l3.5,0.1c6.5,0.1,12.3,2.9,16.2,7.7l1.4,1.8
			l0.9,1.1l-1.5,1.6l-1,1.1l-3.4,3.7l-0.6,0.7l0.7,0.6l3.2,2.9l1.2,1.1l0.3-1.6l1.2-7.6l0.3-2l0,0l0.3-2l1.8-11.3H188h0.8l0.1-0.8
			l0.3-1.9h14.8l3.6,22.6l0.2,1.5l1.2-0.9c1.5-1.1,3.1-1.9,4.8-2.6c2.3-0.9,4.6-1.3,7-1.3c2.8,0,5.5,0.6,7.8,1.9
			c0.1,0,0.1,0.1,0.3,0.2L230,66l0.1-1.2l0.3-2.5l0.1-0.8l-0.8-0.2l-3-0.7l-0.1-11.8l22.9,5l1.7,8.5l1.8,0l1.8-7.3l19.1,4.6
			l-19.5,58.7l-13.9-4.4l-0.1-5.4l0-0.8l-0.8-0.1l-13.9-2l0.8-7.1l0.2-1.7l-1.5,0.8c-0.7,0.4-1.4,0.7-2.1,0.9
			c-2.3,0.9-4.6,1.3-6.9,1.3c-0.7,0-1.3,0-2-0.1l-1.2-0.1l0.2,1.2l1,6.2l-20.3-3.6l-1.1-9.2l-0.3-3l-1.4,2.6l-2.3,4.5l-4.3-7.9
			l-1.3-2.4l-0.4,2.7l-0.9,6.1l-17.8-2.8l1.4-8.4l0.3-1.9l-1.7,1c-2.9,1.7-6.3,3.1-10.2,4c-1.4,0.3-2.8,0.6-4.3,0.7l-0.8,0.1v0.8
			v15.9l-35-17.3l-1.3-0.6l0,1.5l0,14.8l-15.7,2.3l-0.7-7.1l-0.2-1.9l-1.4,1.3c-2.1,2-4.4,3.6-6.9,4.7c-2.6,1.1-5.3,1.7-7.9,1.7
			c-2.7,0-5.2-0.6-7.5-1.6c-4.2-2-7.3-5.7-8.6-10.4c-0.6-2.2-0.8-4.5-0.5-6.9l0.3-2.5l-1.8,1.8c-1.3,1.2-2.7,2.4-4.2,3.5L56.8,90
			l0.2,0.6l5.3,20.2l0.9,3.6l-3.5,1.1l-9.9,3.2L46.4,119.8C46.4,119.8,46.4,119.8,46.4,119.8z M50.8,65.5c-0.5,0-1,0-1.6,0.1
			l-0.7,0.1l-1,0.2l0.3,1l0.2,0.6l2.8,9.3l0.3,0.9l0.4,1.3l1-0.9l0.7-0.6c2.8-2.5,3.7-5,3.1-8.2c-0.4-1.9-1.8-2.8-2.7-3.2
			C53,65.7,51.9,65.5,50.8,65.5L50.8,65.5L50.8,65.5z M127,65.8l-1.8,1.7l-4.7,4.5l-1,1l1.3,0.5l5,1.9l1.5,0.6l-0.3-1.6
			c-0.4-2.1-0.5-4.2-0.3-6.2L127,65.8C127,65.8,127,65.8,127,65.8z M147.4,60.6c-1.9,0-3.8,0.8-5.1,2.3c-2,2.2-2.4,5.5-1,8.1
			l0.4,0.7l0.6,1.1l0.9-1l0.6-0.6l6.9-7.8l0.5-0.6l0.9-1l-1.2-0.5l-0.8-0.3C149.1,60.8,148.3,60.6,147.4,60.6L147.4,60.6L147.4,60.6
			z"/>
	</g>
	<path id="path88" class="st12" d="M152.4,70.5c-0.1,0.1-0.1,0.1-0.2,0.2C152.3,70.7,152.4,70.6,152.4,70.5L152.4,70.5z"/>
	<polygon id="polygon90" class="st12" points="158.4,65 161.8,61.4 160.6,62.6 160.6,62.5 159.6,63.6 156.2,67.2 159.4,70.1 
		160,66.5 161.6,67.9 	"/>
	<polygon id="polygon92" class="st12" points="158.4,65 161.6,67.9 162.8,60.3 161.8,61.4 	"/>
	<path id="path94" class="st12" d="M115.7,71L115.7,71L115.7,71z"/>
	<path id="path96" class="st13" d="M134.7,74.2c0.3,0.3,0,0.1,0.3,0.3l2.1-1.5c-0.3-0.2-0.6-0.5-0.9-0.7c-3-2.8-2.2-9-0.3-12.4
		C130.7,64.1,131,70.5,134.7,74.2"/>
	<path id="path98" class="st13" d="M160,77.7c-3.5,2.9-7.4,4.7-12.6,6c-1.1,0.3-2.3,0.5-3.3,0.5c-8.3,0.8-15.2-3-17.8-9.1
		c-0.3-0.7-0.6-1.5-0.8-2.3c-1.2-5.2-0.2-9.8,2.4-13.5c0.3-0.4,0.5-0.7,0.8-1c-0.1,0.1-0.3,0.2-0.4,0.3c-1,0.9-1.9,1.8-2.6,2.9
		c-2.6,3.6-3.6,8.3-2.4,13.5c0.2,0.8,0.4,1.6,0.8,2.3c2.6,6.2,9.6,10,17.8,9.2c1.1-0.1,2.2-0.3,3.4-0.6c5.2-1.3,9.2-3.1,12.6-6
		c0.8-0.7,1.7-1.5,2.5-2.3l-0.1-0.1C160.1,77.6,160,77.6,160,77.7"/>
	<polygon id="polygon100" class="st13" points="101.7,62 110.9,49 110.5,48.7 101.6,61.2 	"/>
	<polygon id="polygon102" class="st13" points="162.8,60.3 161.6,67.9 160,66.5 159.4,70.1 156.2,67.2 159.6,63.6 160.6,62.5 
		160.6,62.6 161.8,61.4 	"/>
	<polygon id="polygon104" class="st13" points="151.4,38.9 154.6,37.5 148.7,29.9 146.8,32.6 	"/>
	<path id="path106" class="st13" d="M61.8,57.7c-14.9-18.2-41.8-8.4-51.5,0.1l0.4,0.7c2.2-1.3,4.6-2.4,7-3.5
		c9.6-4.1,18.8-5.3,26.1-4c2.6,0.3,5.3,1.1,7.7,2.7c3.3,1.9,5.8,4.5,7.3,7.9c2.6,6,0.3,14-5.8,20.6C60.7,75.1,66,68.3,61.8,57.7z"/>
	<path id="path108" class="st13" d="M92.3,78.9c-0.1-0.3-0.1-0.7-0.2-1c-0.8-3-2.6-5.4-5-7c-3.8-2.6-9.2-3.1-14.5-0.9
		c-2.8,1.2-5.2,3.1-7.2,5.3c1.5-1.3,3.2-2.3,5-3.1c5.3-2.3,10.7-1.7,14.5,0.9c2.4,1.6,4.2,4,5,7c0.1,0.3,0.2,0.7,0.2,1
		c0.2,1.2,0.3,2.3,0.3,3.5c-0.1,3.5-1.4,7-3.5,10c-0.3,0.5-0.7,0.9-1.1,1.4c1.2-1.1,2.3-2.2,3.2-3.5c2.2-3,3.4-6.5,3.6-10
		C92.6,81.3,92.5,80.1,92.3,78.9"/>
	<path id="path110" class="st13" d="M77.6,74.5c0,0,2.2-2.2,2.1-2.2c-2.7-0.1-3.9,2.5-4,2.7C76.3,74.7,76.9,74.5,77.6,74.5"/>
	<path id="path112" class="st13" d="M82.7,77.6c0.1,0.4,0.2,0.7,0.2,1.1c0,0.6-0.1,1.1-0.4,1.6c0.4-0.2,3.6-1.8,2.4-5
		C85,75.5,82.6,77.6,82.7,77.6"/>
	<path id="path114" class="st13" d="M70.3,79.4c0-1.3,2.3-4.6,3-5.7c-3.6,2.3-5.2,5.4-5.2,7.8c0,4.2,3.7,7.6,8.1,7.6
		c2.1,0,5.9-1.1,8.4-5.1c-1.3,0.9-4.6,2.9-6.4,2.9C73.8,87,70.3,83.7,70.3,79.4"/>
	<polygon id="polygon116" class="st13" points="101.2,83.3 101.3,100.2 104,100.4 103.4,81.1 	"/>
	<polygon id="polygon118" class="st13" points="85.8,51 85.8,52.5 98.6,48.7 99.5,65 101.7,62 101.2,45.7 	"/>
	<polygon id="polygon120" class="st13" points="124.3,56.8 112.4,45.8 110.9,49 121.5,58.9 	"/>
	<path id="path122" class="st13" d="M122.5,77.3l-14.1-4.7l-2,2.2l14,5.6c1.6,3,4,5.6,7,7.4c2.9,1.8,6.3,2.9,9.8,3.2V98l2.2,1.1
		l0.7-10.4L122.5,77.3L122.5,77.3z"/>
	<path id="path124" class="st13" d="M145.1,75.4c3.5-0.8,5.4-2.6,7.2-4.6c-1.3,1.1-7.7,2.5-8.8,2.8l-2.1,2.3
		C142.3,75.9,143.9,75.6,145.1,75.4"/>
	<path id="path126" class="st13" d="M138.8,51.4c-6.4,0.8-9.7,6.2-10.2,6.8c2.4-2,5.3-3.5,8.6-4.2c7.9-1.9,14.8,0.5,19.1,5.8
		l2.7-2.2C154.7,52.4,146.7,49.5,138.8,51.4"/>
	<path id="path128" class="st13" d="M160.2,77.5c0.8-0.6,2.1-1.3,2.9-2.1l-8.5-7.6c-0.7,0.8-1.2,2.1-2,2.7L160.2,77.5L160.2,77.5z"
		/>
	<path id="path130" class="st13" d="M203.9,97.9c-8.9-7.4-8.4-23.1-4-28.1L196,45.1l-8.6,1.1l-0.4,2.2h6.5l3.5,22.4
		c-4.4,5-6.5,11.7-5.1,17.9c1.1,4.8,4.1,8.6,8.3,10.8c0.4,0.2,0.9,0.4,1.3,0.6l0.1,0.3l2.6,0.4C204.1,100.9,204.4,98.1,203.9,97.9
		L203.9,97.9z"/>
	<polygon id="polygon132" class="st13" points="169.6,48.7 169.2,50.9 179,50.9 181.9,66.8 184.1,64.6 181.8,47.8 	"/>
	<polygon id="polygon134" class="st13" points="186.4,79.5 183.2,87.7 184,89.9 188.5,77.4 	"/>
	<polygon id="polygon136" class="st13" points="177,74.4 174.8,76.6 172.4,91.4 174.7,92.2 	"/>
	<path id="path138" class="st13" d="M221.1,69.6c1.3,0.9,2.4,2.1,3.2,3.5c0.7,1.1,1.1,2.2,1.5,3.6c1.1,4.5-0.2,9.3-3,13.1
		c-0.3,0.4-0.6,0.8-0.9,1.1c1.1-1,15.1-11.3,1.5-24.8c-15-4.9-20.7,4.8-21.2,5.5c1.6-1.3,3.4-2.5,5.4-3.2
		C212.6,66.4,217.6,67.1,221.1,69.6"/>
	<path id="path140" class="st13" d="M213.6,70.6c0,0.1,2.2-2.2,2.2-2.2c-2.7,0.1-4,1.4-3.8,2c-0.2,0.2-0.3,0.5-0.4,0.7
		C212.1,70.8,213.2,70.6,213.6,70.6"/>
	<path id="path142" class="st13" d="M218.6,74c0.1,0.4,0.1,0.7,0.1,1.1c0,0.5-0.2,1-0.4,1.4c0.4-0.2,3.6-1.2,2.4-4.8
		C220.8,71.9,218.5,74,218.6,74"/>
	<path id="path144" class="st13" d="M211.5,85.3c3,0.1,6.4-1.7,8.8-5c-6.1,1.3-12.6-9-12-10c-2.3,1.7-4.4,4.9-4.5,7.2
		C203.6,81.7,207.1,85.1,211.5,85.3"/>
	<polygon id="polygon146" class="st13" points="245.2,112 246.6,112.9 264.2,60.1 251,57.1 250.9,60.2 261.5,62.5 	"/>
	<polygon id="polygon148" class="st13" points="224.3,51.4 224.4,54.4 238.4,57.2 243.8,82.7 246,80.5 240.8,54.7 	"/>
	<polygon id="polygon150" class="st13" points="235.1,80.6 231.2,102.3 233.4,103.1 237.3,78.4 	"/>
	<polygon id="polygon152" class="st13" points="53.4,110.3 46.9,86.6 44.5,88.3 50.6,111 	"/>
	<path id="path154" class="st13" d="M51.7,74.7c-1.5,1.6-4.9,4.7-6.8,5.9l-1.2-3.7l-2.5-8.2l-1.6-5.5l-1.6,2l1.6,5.5l2.5,8.1
		l1.2,3.7C46,80.9,49.8,77.8,51.7,74.7"/>
	<path id="path156" class="st12" d="M144.5,60.6c-2.1-0.8-5-0.6-6.6,1.2c-0.4,0.4-1.1,1.4-1.3,1.9c1.5-1.2,4.3-1.5,6-0.8L144.5,60.6
		L144.5,60.6z"/>
	<path id="path158" class="st12" d="M49.9,68c-0.2-1.2-1.4-2.2-2-2.5c-1-0.5-2.9-0.6-4.2-0.3c0.2,0.8,0.5,1.8,0.6,2.2
		c0.5,0.1,1.4,0.2,1.9,0.4c0.6,0.3,1.6,0.9,1.8,2.2c0.3,1.6,0.2,3.2-0.4,4.4C49.4,72.6,50.3,70.6,49.9,68"/>
	<g id="g160" transform="translate(-5.451,-1.686)">
		<g id="g162">
			<path id="path164" class="st14" d="M58.6,69.6c-0.9-4.8-7.2-7.5-13.5-4.1l1.6,5.5l2.5,8.2l1.2,3.7C55.1,79.9,59.8,76.3,58.6,69.6
				z M52.4,77.1c-0.7-2.2-2.2-7-2.2-7c0,0-0.3-1-0.7-2.2c1.3-0.2,2.6-0.1,3.6,0.4c0.6,0.3,1.6,0.9,1.8,2.2
				C55.5,73.1,54.6,75.1,52.4,77.1z"/>
		</g>
	</g>
	<g id="g166" transform="translate(-5.451,-1.686)">
		<g id="g168">
			<path id="path170" class="st15" d="M153.2,62c-3.5-3.2-8.9-3-12.1,0.5c-3.2,3.5-3,8.9,0.5,12.1c0.3,0.3,0.6,0.5,0.9,0.7
				l11.3-12.8C153.6,62.4,153.4,62.2,153.2,62z M142.6,71c-1.1-2-0.9-4.6,0.8-6.4c1.6-1.7,4-2.2,6.1-1.4L142.6,71z"/>
		</g>
	</g>
	<polygon id="polygon172" class="st16" points="162.8,58.9 156.6,64.9 162.5,70.2 	"/>
	<path id="path174" class="st17" d="M220.7,71.8c0.1,0.4,0.1,0.8,0.1,1.2c-0.1,2.4-2.3,4.2-5,4.1c-2.7-0.1-4.8-2.1-4.7-4.5
		c0.1-2.2,2.1-4,4.5-4.1c-0.5-0.1-1-0.2-1.5-0.2c-4.5-0.2-8.1,3-8.3,6.9c-0.2,4.2,3.2,7.7,7.6,7.8c4.5,0.2,8.1-3,8.3-7.2
		C222,74.4,221.5,73,220.7,71.8"/>
	
		<linearGradient id="path183_1_" gradientUnits="userSpaceOnUse" x1="639.706" y1="1566.2625" x2="655.635" y2="1566.2625" gradientTransform="matrix(1 0 0 1 -569.451 -1486.686)">
		<stop  offset="0" style="stop-color:#3C5AA6"/>
		<stop  offset="0.9331" style="stop-color:#2B73B9"/>
		<stop  offset="1" style="stop-color:#2A75BB"/>
	</linearGradient>
	<path id="path183" class="st18" d="M85.1,76.6c0,2.4-2.2,4.3-4.8,4.3c-2.7,0-4.8-1.9-4.8-4.3c0-2.2,1.9-4.1,4.4-4.3
		c-0.5-0.1-1-0.1-1.5-0.1c-4.5,0-8,3.3-8,7.3c0,4.2,3.5,7.5,7.9,7.5c4.5,0,8-3.3,8-7.5c0-1.5-0.5-2.8-1.3-4
		C85,75.8,85.1,76.2,85.1,76.6"/>
	<g id="g185" transform="translate(-5.451,-1.686)">
		<g id="g187">
			
				<linearGradient id="path196_1_" gradientUnits="userSpaceOnUse" x1="578.628" y1="1559.7489" x2="844.371" y2="1559.7489" gradientTransform="matrix(1 0 0 1 -569.451 -1486.686)">
				<stop  offset="0" style="stop-color:#3C5AA6"/>
				<stop  offset="0.9331" style="stop-color:#2B73B9"/>
				<stop  offset="1" style="stop-color:#2A75BB"/>
			</linearGradient>
			<path id="path196" class="st19" d="M254,54.1l-2,8.2l-1.8-9.1l-24.6-5.4l0.2,13.7l3.7,0.8l-0.3,2.5c0,0-0.1,0-0.1-0.1
				c-4.6-2.4-10.3-2.7-15.6-0.6c-1.8,0.7-3.5,1.6-5,2.7l-3.7-23.4h-16.3l-0.4,2.7h-17.2l-2,12l-1.4-1.8c-4.2-5.1-10.2-7.9-16.9-8.1
				l14.6-7.8L155,25.2l-18.4,21.2l3.2,3.9c-2.9,1.2-5.4,2.8-7.5,4.8l-15.8-14L111,51.6l0.2-10.2l-24.7,7.9l0.6,13.2l4.2-1.1l0.6,6.7
				c-4.8-2.2-10.6-2.1-15.9,0.2c-1.6,0.7-3.1,1.5-4.4,2.5c0.9-4.1,0.7-8.1-0.9-11.7c-1.8-4.2-5.1-7.8-9-10c-2.8-1.9-6.1-3-9.6-3.4
				c-8.5-1.5-18.8,0-28.9,4.3c-3.7,1.6-7.2,3.4-10.3,5.4l-3.9,2.5l2.4,4l7.4,12.5c0,0,2.3,3.8,2.3,3.8l4-2l0.6-0.3l18.4,41l1.8,3.9
				l4.1-1.3l9.9-3.2l4.4-1.4l-1.1-4.4l-5.3-20.2c1.5-1.1,2.9-2.3,4.2-3.6c-0.3,2.4-0.1,4.9,0.5,7.2c1.4,4.9,4.6,8.8,9.1,10.9
				c4.8,2.3,10.7,2.3,16.1,0c2.7-1.2,5.2-2.8,7.2-4.9l0.7,8.1l17.4-2.6l0-15.6l36.3,18V90.6c1.5-0.1,2.9-0.4,4.4-0.7
				c4-1,7.4-2.3,10.5-4.1l-1.5,9.3l19.6,3.1l1.1-7.1l5.1,9.5l3.1-6l1.1,9.9l22.2,3.9l-1.2-7.5c3,0.3,6.2-0.1,9.3-1.2
				c0.7-0.3,1.5-0.6,2.1-1l-0.9,8l14.8,2.1l0.1,6.1l15.4,4.8l20.1-60.5L254,54.1L254,54.1z M167.2,63.1l1-1.1l-1.2,7.6l-3.2-2.9
				L167.2,63.1z M154.2,31.9l5.4,7.3l-15.4,7.6l-1.1-1.6C143.1,45.2,154.2,31.9,154.2,31.9z M52.3,88.3l6.1,23.6l-9.9,3.2L28.1,69.5
				c-1.1,0.6-3.2,1.6-5,2.5l-7.4-12.5c2.9-1.9,6.2-3.5,9.6-5c9.6-4.1,18.8-5.3,26.1-4c2.6,0.3,5.3,1.1,7.7,2.7
				c3.3,1.9,5.8,4.5,7.3,7.9C70,69.2,64.1,81.1,52.3,88.3z M98,84.1c-0.1,3.5-1.4,7-3.6,10c-2.1,2.9-4.9,5.2-8.3,6.7
				c-8.6,3.7-17.2,0-19.5-8.2c-2.2-7.9,3-17.3,11.3-20.9c5.3-2.3,10.7-1.7,14.5,0.9c2.4,1.6,4.2,4,5,7c0.1,0.3,0.2,0.7,0.2,1
				C98,81.8,98,82.9,98,84.1z M144.9,100.8l-36.1-18l0.1,18.9l-9.3,1.3l-0.7-7.8c2.9-4.9,3.9-10.8,2.4-16.1
				c-0.8-2.9-2.3-5.5-4.4-7.5l-1.3-15.9l-4.2,1.1l-0.2-4l15-4.5l0.9,15.4l11-15.5L129,58.4l-15.1,15.9l14.2,5.6c1.6,3,4,5.5,7,7.4
				c2.9,1.8,6.3,2.9,9.8,3.2L144.9,100.8L144.9,100.8L144.9,100.8z M126.2,74.6l-5-1.9l4.7-4.5C125.6,70.2,125.7,72.4,126.2,74.6z
				 M165.4,79.4c-3.5,2.9-7.4,4.7-12.6,6c-1.1,0.3-2.3,0.5-3.3,0.5c-8.3,0.8-15.2-3-17.8-9.1c-0.3-0.7-0.6-1.5-0.8-2.3
				c-1.2-5.2-0.2-9.8,2.4-13.5c0.7-1.1,1.6-2,2.6-2.9c2.4-2.2,5.5-3.7,9-4.6c7.9-1.9,14.8,0.5,19.1,5.7l-15,16
				c1,0.2,2.6-0.1,3.8-0.4c3.6-0.9,5.6-2.8,7.3-4.8l6,5.4l1.8,1.6C167.1,77.9,166.3,78.7,165.4,79.4z M197.3,100.7L194,79.1
				L189.4,91l-6.9-14.9h-0.1l-2.7,17.3l-11.5-2l1.6-9.6c0.4-0.4,0.9-0.8,1.3-1.3l3.7-3.8l-3.6-3.3l3.9-23h11.6l2.9,15.9l3.3-18.4
				h8.3l3.5,22.4c-4.4,5-6.5,11.7-5.1,17.9c1.1,4.8,4.1,8.6,8.3,10.9c0.4,0.2,0.9,0.4,1.3,0.6l0.4,2.9L197.3,100.7L197.3,100.7z
				 M226,93.6c-1.3,0.9-2.7,1.7-4.2,2.2c-3,1.1-5.9,1.4-8.6,0.8c-1.8-0.4-3.5-1.1-5-2.1c-2.3-1.7-4-4.1-4.8-7.2
				c-0.9-3.7-0.1-7.7,1.9-11.2c1-1.7,2.3-3.3,3.8-4.7c1.7-1.5,3.7-2.8,5.8-3.6c5.1-1.9,10.1-1.2,13.6,1.3c1.3,0.9,2.4,2.1,3.2,3.5
				c0.6,1.1,1.1,2.3,1.4,3.6c1.1,4.5-0.2,9.3-3,13.1C229.2,90.9,227.7,92.4,226,93.6z M252,114l-8.5-2.5l-0.7-31.4l-4.3,24.2
				l-9.3-1.5l0.7-7c6.1-5.1,9.3-13.2,7.5-20.6c-0.8-3.2-2.4-6.1-4.8-8.2l0.8-8.2l-3.5-0.9l0.2-4.4l16,3.2l5.4,25.5l5.5-22.9
				l12.2,2.7L252,114L252,114z"/>
		</g>
	</g>
	<g id="flowRoot3115" transform="matrix(0.93943959,0,0,0.93943959,14.793383,6.4307935)">
		<path id="path3084" d="M254.1,115.9v-2.5h-0.9V113h2.3v0.3h-0.9v2.5H254.1z"/>
		<path id="path3086" d="M255.8,115.9V113h0.6l0.7,2c0.1,0.2,0.1,0.3,0.1,0.4c0-0.1,0.1-0.3,0.2-0.5l0.7-2h0.5v2.9h-0.4v-2.4
			l-0.8,2.4H257l-0.8-2.4v2.4H255.8z"/>
	</g>
</g>
<linearGradient id="XMLID_51_" gradientUnits="userSpaceOnUse" x1="192.3991" y1="37.2075" x2="238.9089" y2="37.2075">
	<stop  offset="0" style="stop-color:#3C5AA6"/>
	<stop  offset="0.9331" style="stop-color:#2B73B9"/>
	<stop  offset="1" style="stop-color:#2A75BB"/>
</linearGradient>
<path id="XMLID_24_" class="st20" d="M215.7,2.5c-11.5,0-20.8,9.3-20.8,20.8c0,3.2,0.7,6.3,2,9c0.1,0.2,18.7,36.7,18.7,36.7
	l18.5-36.2c1.4-2.8,2.3-6,2.3-9.4C236.4,11.8,227.1,2.5,215.7,2.5z M215.7,35.7c-6.9,0-12.5-5.6-12.5-12.5s5.6-12.5,12.5-12.5
	c6.9,0,12.5,5.6,12.5,12.5S222.5,35.7,215.7,35.7z"/>
</svg>
