<?xml version="1.0" standalone="no"?>
<!DOCTYPE svg PUBLIC "-//W3C//DTD SVG 20010904//EN"
 "http://www.w3.org/TR/2001/REC-SVG-20010904/DTD/svg10.dtd">
<svg version="1.0" xmlns="http://www.w3.org/2000/svg"
 width="752.000000pt" height="752.000000pt" viewBox="0 0 752.000000 752.000000"
 preserveAspectRatio="xMidYMid meet">
<metadata>
Created by potrace 1.11, written by Peter Selinger 2001-2013
</metadata>
<g transform="translate(0.000000,752.000000) scale(0.100000,-0.100000)"
fill="#000000" stroke="none">
<path d="M3521 7099 c-483 -51 -966 -319 -1265 -702 -576 -741 -534 -1760 103
-2449 281 -305 699 -518 1125 -574 175 -23 448 -14 611 20 791 166 1377 790
1490 1587 30 213 15 495 -39 709 -230 909 -1089 1506 -2025 1409z m405 -419
c149 -38 289 -121 379 -222 51 -58 111 -172 121 -230 l6 -38 -70 0 -70 0 -12
38 c-32 100 -134 207 -254 266 -113 55 -183 70 -331 70 -120 0 -137 -3 -225
-33 -168 -57 -282 -151 -337 -278 l-27 -63 -69 0 -69 0 7 33 c24 110 104 235
202 312 103 82 255 145 395 165 91 13 263 3 354 -20z m-77 -259 c84 -26 141
-62 195 -122 135 -150 77 -361 -125 -457 -352 -167 -765 121 -594 414 27 47
89 105 137 130 107 56 272 71 387 35z m-717 -439 c32 -86 130 -182 242 -238
122 -60 208 -77 361 -72 97 4 135 10 200 32 156 54 272 148 328 268 l32 68 69
0 69 0 -7 -32 c-3 -18 -24 -69 -46 -114 -66 -135 -213 -258 -376 -315 -319
-111 -691 -33 -896 189 -57 62 -121 177 -133 240 l-7 33 72 -3 72 -3 20 -53z
m762 -942 c167 -42 302 -144 367 -276 31 -63 34 -76 34 -164 0 -86 -3 -101
-33 -164 -122 -258 -505 -375 -806 -246 -134 57 -249 176 -286 297 -25 82 -25
144 0 226 78 253 416 406 724 327z m-1831 -137 c108 -64 359 -180 487 -227
107 -38 204 -66 401 -117 35 -9 37 -12 48 -69 16 -78 78 -202 136 -268 90
-101 228 -183 380 -223 112 -29 307 -30 420 0 263 69 451 244 512 477 l18 67
130 32 c181 44 259 69 420 132 146 58 292 127 408 195 38 22 71 37 74 35 9
-10 -27 -159 -67 -280 -136 -406 -421 -756 -799 -979 -306 -181 -697 -270
-1043 -239 -790 71 -1415 603 -1609 1370 -16 62 -29 124 -29 138 0 25 0 25 26
8 15 -9 54 -33 87 -52z"/>
<path d="M1823 4555 c3 -11 18 -87 32 -170 35 -198 91 -364 190 -560 108 -213
175 -323 465 -760 135 -203 276 -417 312 -475 185 -297 349 -681 579 -1357 61
-180 126 -360 143 -398 59 -127 126 -180 201 -155 80 26 124 112 260 505 230
662 403 1074 561 1337 38 62 182 283 322 491 140 208 292 442 339 520 108 179
230 426 271 549 30 90 97 419 90 440 -2 6 -37 -61 -77 -148 -117 -253 -217
-421 -350 -586 -82 -103 -249 -260 -355 -335 -99 -70 -285 -168 -396 -208
-172 -61 -419 -105 -595 -105 l-95 0 -6 -27 c-10 -47 -12 -49 -13 -12 l-1 36
-142 6 c-470 19 -850 192 -1178 534 -181 188 -318 398 -460 703 -75 161 -111
227 -97 175z m388 -805 c233 -292 549 -508 888 -609 110 -33 308 -67 443 -77
l87 -6 6 -51 c9 -86 35 -478 35 -544 l0 -63 34 0 c34 0 35 0 40 53 3 28 12
174 22 322 9 149 19 273 23 277 3 3 67 12 141 18 271 22 473 78 696 190 76 38
182 100 234 137 112 80 313 276 395 386 31 42 59 77 61 77 8 0 -70 -147 -149
-279 -44 -75 -194 -305 -332 -511 -381 -568 -419 -633 -575 -999 -102 -241
-215 -539 -330 -876 -119 -348 -168 -445 -225 -445 -50 0 -89 84 -219 466
-122 359 -170 492 -271 739 -187 460 -232 540 -660 1180 -111 165 -238 361
-282 435 -93 156 -195 349 -161 306 13 -16 57 -73 99 -126z"/>
</g>
</svg>
